<?xml version="1.0" encoding="UTF-8"?>
<svg xmlns="http://www.w3.org/2000/svg" xmlns:xlink="http://www.w3.org/1999/xlink" width="41px" height="41px" viewBox="0 0 41 41" version="1.1">
<g id="surface1">
<path style=" stroke:none;fill-rule:nonzero;fill:rgb(95.294118%,54.901961%,9.411765%);fill-opacity:1;" d="M 20.5 0.0820312 C 9.179688 0.0820312 0 9.261719 0 20.582031 C 0 30.738281 7.390625 39.152344 17.082031 40.777344 L 17.082031 24.859375 L 12.136719 24.859375 L 12.136719 19.136719 L 17.082031 19.136719 L 17.082031 14.914062 C 17.082031 10.011719 20.074219 7.339844 24.445312 7.339844 C 26.539062 7.339844 28.339844 7.5 28.859375 7.566406 L 28.859375 12.6875 L 25.828125 12.6875 C 23.453125 12.6875 22.992188 13.820312 22.992188 15.476562 L 22.992188 19.132812 L 28.664062 19.132812 L 27.925781 24.859375 L 22.992188 24.859375 L 22.992188 40.917969 C 33.136719 39.679688 41 31.054688 41 20.582031 C 41 9.261719 31.820312 0.0820312 20.5 0.0820312 Z M 20.5 0.0820312 "/>
</g>
</svg>
