<?xml version="1.0" encoding="UTF-8"?>
<svg xmlns="http://www.w3.org/2000/svg" xmlns:xlink="http://www.w3.org/1999/xlink" width="44pt" height="44pt" viewBox="0 0 44 44" version="1.1">
<g id="surface1">
<path style=" stroke:none;fill-rule:nonzero;fill:rgb(95.294118%,54.901961%,9.411765%);fill-opacity:1;" d="M 22 0.0898438 C 9.851562 0.0898438 0 9.941406 0 22.089844 C 0 32.988281 7.929688 42.015625 18.332031 43.761719 L 18.332031 26.679688 L 13.023438 26.679688 L 13.023438 20.535156 L 18.332031 20.535156 L 18.332031 16.003906 C 18.332031 10.746094 21.542969 7.878906 26.234375 7.878906 C 28.480469 7.878906 30.414062 8.046875 30.972656 8.121094 L 30.972656 13.617188 L 27.71875 13.617188 C 25.167969 13.617188 24.675781 14.832031 24.675781 16.609375 L 24.675781 20.53125 L 30.761719 20.53125 L 29.96875 26.679688 L 24.675781 26.679688 L 24.675781 43.910156 C 35.5625 42.582031 44 33.328125 44 22.085938 C 44 9.941406 34.148438 0.0898438 22 0.0898438 Z M 22 0.0898438 "/>
</g>
</svg>
