<?xml version="1.0" encoding="UTF-8"?>
<svg xmlns="http://www.w3.org/2000/svg" xmlns:xlink="http://www.w3.org/1999/xlink" width="41px" height="41px" viewBox="0 0 41 41" version="1.1">
<g id="surface1">
<path style=" stroke:none;fill-rule:nonzero;fill:rgb(95.294118%,54.901961%,9.411765%);fill-opacity:1;" d="M 28.1875 0 L 12.8125 0 C 5.738281 0 0 5.738281 0 12.8125 L 0 28.1875 C 0 35.261719 5.738281 41 12.8125 41 L 28.1875 41 C 35.261719 41 41 35.261719 41 28.1875 L 41 12.8125 C 41 5.738281 35.261719 0 28.1875 0 Z M 37.15625 28.1875 C 37.15625 33.132812 33.132812 37.15625 28.1875 37.15625 L 12.8125 37.15625 C 7.867188 37.15625 3.84375 33.132812 3.84375 28.1875 L 3.84375 12.8125 C 3.84375 7.867188 7.867188 3.84375 12.8125 3.84375 L 28.1875 3.84375 C 33.132812 3.84375 37.15625 7.867188 37.15625 12.8125 Z M 37.15625 28.1875 "/>
<path style=" stroke:none;fill-rule:nonzero;fill:rgb(95.294118%,54.901961%,9.411765%);fill-opacity:1;" d="M 20.5 10.25 C 14.839844 10.25 10.25 14.839844 10.25 20.5 C 10.25 26.160156 14.839844 30.75 20.5 30.75 C 26.160156 30.75 30.75 26.160156 30.75 20.5 C 30.75 14.839844 26.160156 10.25 20.5 10.25 Z M 20.5 26.90625 C 16.96875 26.90625 14.09375 24.03125 14.09375 20.5 C 14.09375 16.964844 16.96875 14.09375 20.5 14.09375 C 24.03125 14.09375 26.90625 16.964844 26.90625 20.5 C 26.90625 24.03125 24.03125 26.90625 20.5 26.90625 Z M 20.5 26.90625 "/>
<path style=" stroke:none;fill-rule:nonzero;fill:rgb(95.294118%,54.901961%,9.411765%);fill-opacity:1;" d="M 32.882812 9.480469 C 32.882812 10.234375 32.269531 10.847656 31.519531 10.847656 C 30.765625 10.847656 30.152344 10.234375 30.152344 9.480469 C 30.152344 8.730469 30.765625 8.117188 31.519531 8.117188 C 32.269531 8.117188 32.882812 8.730469 32.882812 9.480469 Z M 32.882812 9.480469 "/>
</g>
</svg>
