<?xml version="1.0" encoding="UTF-8"?>
<svg xmlns="http://www.w3.org/2000/svg" xmlns:xlink="http://www.w3.org/1999/xlink" width="44pt" height="44pt" viewBox="0 0 44 44" version="1.1">
<g id="surface1">
<path style=" stroke:none;fill-rule:nonzero;fill:rgb(95.294118%,54.901961%,9.411765%);fill-opacity:1;" d="M 30.25 0 L 13.75 0 C 6.15625 0 0 6.15625 0 13.75 L 0 30.25 C 0 37.84375 6.15625 44 13.75 44 L 30.25 44 C 37.84375 44 44 37.84375 44 30.25 L 44 13.75 C 44 6.15625 37.84375 0 30.25 0 Z M 39.875 30.25 C 39.875 35.558594 35.558594 39.875 30.25 39.875 L 13.75 39.875 C 8.441406 39.875 4.125 35.558594 4.125 30.25 L 4.125 13.75 C 4.125 8.441406 8.441406 4.125 13.75 4.125 L 30.25 4.125 C 35.558594 4.125 39.875 8.441406 39.875 13.75 Z M 39.875 30.25 "/>
<path style=" stroke:none;fill-rule:nonzero;fill:rgb(95.294118%,54.901961%,9.411765%);fill-opacity:1;" d="M 22 11 C 15.925781 11 11 15.925781 11 22 C 11 28.074219 15.925781 33 22 33 C 28.074219 33 33 28.074219 33 22 C 33 15.925781 28.074219 11 22 11 Z M 22 28.875 C 18.210938 28.875 15.125 25.789062 15.125 22 C 15.125 18.207031 18.210938 15.125 22 15.125 C 25.789062 15.125 28.875 18.207031 28.875 22 C 28.875 25.789062 25.789062 28.875 22 28.875 Z M 22 28.875 "/>
<path style=" stroke:none;fill-rule:nonzero;fill:rgb(95.294118%,54.901961%,9.411765%);fill-opacity:1;" d="M 35.289062 10.175781 C 35.289062 10.984375 34.632812 11.640625 33.824219 11.640625 C 33.015625 11.640625 32.359375 10.984375 32.359375 10.175781 C 32.359375 9.367188 33.015625 8.710938 33.824219 8.710938 C 34.632812 8.710938 35.289062 9.367188 35.289062 10.175781 Z M 35.289062 10.175781 "/>
</g>
</svg>
