<?xml version="1.0" encoding="UTF-8"?>
<svg xmlns="http://www.w3.org/2000/svg" xmlns:xlink="http://www.w3.org/1999/xlink" width="44pt" height="44pt" viewBox="0 0 44 44" version="1.1">
<g id="surface1">
<path style=" stroke:none;fill-rule:nonzero;fill:rgb(95.294118%,54.901961%,9.411765%);fill-opacity:1;" d="M 44 8.355469 C 42.363281 9.074219 40.621094 9.550781 38.800781 9.78125 C 40.671875 8.664062 42.101562 6.910156 42.769531 4.796875 C 41.027344 5.835938 39.101562 6.570312 37.050781 6.980469 C 35.394531 5.214844 33.035156 4.125 30.460938 4.125 C 25.46875 4.125 21.445312 8.179688 21.445312 13.148438 C 21.445312 13.863281 21.507812 14.550781 21.65625 15.203125 C 14.15625 14.839844 7.519531 11.246094 3.0625 5.769531 C 2.285156 7.121094 1.828125 8.664062 1.828125 10.328125 C 1.828125 13.453125 3.4375 16.222656 5.835938 17.824219 C 4.386719 17.796875 2.964844 17.378906 1.761719 16.714844 C 1.761719 16.742188 1.761719 16.777344 1.761719 16.8125 C 1.761719 21.195312 4.886719 24.839844 8.988281 25.675781 C 8.253906 25.878906 7.453125 25.972656 6.621094 25.972656 C 6.042969 25.972656 5.460938 25.941406 4.914062 25.820312 C 6.082031 29.390625 9.398438 32.019531 13.34375 32.101562 C 10.273438 34.503906 6.378906 35.949219 2.160156 35.949219 C 1.417969 35.949219 0.710938 35.917969 0 35.828125 C 3.996094 38.402344 8.730469 39.875 13.839844 39.875 C 30.4375 39.875 39.511719 26.125 39.511719 14.207031 C 39.511719 13.808594 39.5 13.421875 39.480469 13.039062 C 41.269531 11.769531 42.773438 10.183594 44 8.355469 Z M 44 8.355469 "/>
</g>
</svg>
