<?xml version="1.0" encoding="UTF-8"?>
<svg xmlns="http://www.w3.org/2000/svg" xmlns:xlink="http://www.w3.org/1999/xlink" width="41px" height="41px" viewBox="0 0 41 41" version="1.1">
<g id="surface1">
<path style=" stroke:none;fill-rule:nonzero;fill:rgb(95.294118%,54.901961%,9.411765%);fill-opacity:1;" d="M 41 7.785156 C 39.476562 8.457031 37.851562 8.898438 36.15625 9.113281 C 37.898438 8.074219 39.230469 6.4375 39.851562 4.46875 C 38.230469 5.4375 36.433594 6.121094 34.523438 6.503906 C 32.980469 4.859375 30.78125 3.84375 28.382812 3.84375 C 23.730469 3.84375 19.984375 7.621094 19.984375 12.253906 C 19.984375 12.917969 20.042969 13.558594 20.179688 14.167969 C 13.191406 13.828125 7.007812 10.480469 2.855469 5.375 C 2.128906 6.636719 1.703125 8.074219 1.703125 9.625 C 1.703125 12.535156 3.203125 15.117188 5.4375 16.609375 C 4.085938 16.582031 2.761719 16.195312 1.640625 15.574219 C 1.640625 15.601562 1.640625 15.632812 1.640625 15.667969 C 1.640625 19.75 4.554688 23.144531 8.375 23.925781 C 7.691406 24.113281 6.945312 24.203125 6.167969 24.203125 C 5.632812 24.203125 5.089844 24.171875 4.578125 24.058594 C 5.667969 27.386719 8.757812 29.835938 12.433594 29.914062 C 9.574219 32.152344 5.945312 33.5 2.011719 33.5 C 1.320312 33.5 0.664062 33.46875 0 33.386719 C 3.722656 35.785156 8.136719 37.15625 12.894531 37.15625 C 28.363281 37.15625 36.816406 24.34375 36.816406 13.238281 C 36.816406 12.867188 36.808594 12.507812 36.789062 12.148438 C 38.457031 10.96875 39.855469 9.488281 41 7.785156 Z M 41 7.785156 "/>
</g>
</svg>
